<svg width="20" height="20" viewBox="0 0 20 20" fill="none" xmlns="http://www.w3.org/2000/svg"><path fill-rule="evenodd" clip-rule="evenodd" d="M15.8858 5.05482c.2603-.26035.2603-.68246 0-.94281-.2604-.26035-.6825-.26035-.9428 0L9.99877 9.0562 5.05458 4.11201c-.26035-.26035-.68246-.26035-.94281 0-.26035.26035-.26035.68246 0 .94281l4.94419 4.94419-4.94419 4.94419c-.26035.2604-.26035.6825 0 .9428.26035.2604.68246.2604.94281 0l4.94419-4.9442L14.943 15.886c.2603.2604.6824.2604.9428 0 .2603-.2603.2603-.6824 0-.9428l-4.9442-4.94419 4.9442-4.94419Z" fill="#2D3440"/></svg>