<svg width="33" height="32" viewBox="0 0 33 32" fill="none" xmlns="http://www.w3.org/2000/svg"><g clip-path="url(#a)"><path d="M27.249 10.2868c.725-1.4841 1.1387-3.0925 1.2173-4.7322a12.0527 12.0527 0 0 0-.7594-4.8209 1.0073 1.0073 0 0 0-.3368-.4785 1.06 1.06 0 0 0-.5536-.2199 1.0707 1.0707 0 0 0-.5872.1114 1.0254 1.0254 0 0 0-.4267.4058c-1.3215 2.2851-4.1622 5.9694-6.2433 6.1405h-.0937a17.3402 17.3402 0 0 0-2.9032-.302 17.4147 17.4147 0 0 0-2.9135.302h-.0729C11.4949 6.532 8.6125 2.8477 7.2806.5626A1.0216 1.0216 0 0 0 6.856.1288a1.0697 1.0697 0 0 0-.604-.1246 1.0594 1.0594 0 0 0-.5706.2284 1.0042 1.0042 0 0 0-.3362.5011 11.9964 11.9964 0 0 0-.7883 4.811c.0697 1.6383.4756 3.2469 1.194 4.732-1.8105.2214-4.1101.7852-4.9426 2.2045A2.15 2.15 0 0 0 .5 13.5885c0 .389.1064.771.3083 1.1073.2384.4113.5932.7482 1.0227.9711a2.6312 2.6312 0 0 0 1.4018.2872 7.5748 7.5748 0 0 0 2.5182-.4831 8.449 8.449 0 0 0 .1353 1.6206 34.4446 34.4446 0 0 0 1.821 5.2346c.1977.4731.4162 1.0066.5306 1.3287-.3418.808-.6099 1.6433-.8012 2.4965a4.324 4.324 0 0 0 .2288 1.7819 4.4286 4.4286 0 0 0 .9366 1.5501C10.111 31.1544 12.7644 32 16.5312 32c3.7669 0 6.4307-.8456 7.9291-2.5166a4.3897 4.3897 0 0 0 .9402-1.549 4.2853 4.2853 0 0 0 .2252-1.783 14.5862 14.5862 0 0 0-.7908-2.4965c.1145-.3221.333-.8455.5203-1.3287a32.6158 32.6158 0 0 0 1.821-5.2346c.105-.534.1538-1.077.1456-1.6206a7.5637 7.5637 0 0 0 2.435.4831 2.6526 2.6526 0 0 0 1.406-.2877c.431-.2227.7878-.5593 1.0289-.9706a2.1499 2.1499 0 0 0 .3083-1.1073c0-.3889-.1064-.7709-.3083-1.1073-.8221-1.369-3.1217-1.973-4.9427-2.1944Zm-.9885-6.6841c.3753 2.105.0088 4.271-1.0406 6.1505a11.0614 11.0614 0 0 0-.8324-.8757A7.4883 7.4883 0 0 0 22.4 7.609c1.5008-1.1263 2.8043-2.4791 3.8605-4.0064Zm-19.469 0c1.0457 1.538 2.3465 2.8984 3.8501 4.0265A6.8158 6.8158 0 0 0 8.675 8.8976c-.298.2762-.5794.5686-.8429.8758-1.0525-1.8858-1.419-4.0592-1.0405-6.1707ZM2.6918 13.7295c-.0936-.1611-.0624-.2114 0-.2517.2394-.3926 1.4464-1.0066 3.7565-1.2382a12.813 12.813 0 0 0-.3122.8859c-1.3527.6744-3.1633 1.0972-3.4443.604Zm22.4346 3.0199a33.302 33.302 0 0 1-1.6858 4.8419 19.5595 19.5595 0 0 0-.7179 1.8825l-.0625.312.1145.2819a15.897 15.897 0 0 1 .8012 2.3656c.011.3175-.0431.634-.1592.9311a2.3942 2.3942 0 0 1-.5171.8003c-.7492.8355-2.4558 1.822-6.3579 1.822s-5.6086-1.0066-6.3578-1.822c-.4493-.4703-.6918-1.0912-.6764-1.7314.2085-.8072.4798-1.598.8117-2.3656l.1144-.2819-.0728-.312a15.9644 15.9644 0 0 0-.7076-1.8925 32.421 32.421 0 0 1-1.7065-4.8722 7.0036 7.0036 0 0 1 .2831-3.4655c.3845-1.1156 1.0445-2.1237 1.9229-2.9367 1.5712-1.5301 5.1299-1.8724 6.3682-1.8824 1.2383-.0101 4.7242.3422 6.3891 1.9025.8837.8053 1.5483 1.8091 1.935 2.9224a6.9166 6.9166 0 0 1 .2814 3.4597v.0403Zm5.2028-3.0199c-.2706.4832-2.0812.0704-3.3715-.594-.0832-.3019-.1873-.5939-.3017-.8959 2.2892.2316 3.4859.8456 3.7148 1.2382.052.0403.0728.0906-.0208.2517h-.0208Z" fill="#2D3440"/></g><defs><clipPath id="a"><path fill="#fff" transform="translate(.5)" d="M0 0h32v32H0z"/></clipPath></defs></svg>